<mxfile host="app.diagrams.net" modified="2023-04-02T11:00:50.627Z" agent="Mozilla/5.0 (Windows NT 10.0; Win64; x64) AppleWebKit/537.36 (KHTML, like Gecko) Chrome/111.0.0.0 Safari/537.36" etag="mTL_EsvdjHS9FntXxXuN" version="21.1.0" type="device">
  <diagram name="Page-1" id="gItYgogquvj7oPLs2f0Y">
    <mxGraphModel dx="2074" dy="1116" grid="1" gridSize="10" guides="1" tooltips="1" connect="1" arrows="1" fold="1" page="1" pageScale="1" pageWidth="827" pageHeight="1169" math="0" shadow="0">
      <root>
        <mxCell id="0" />
        <mxCell id="1" parent="0" />
        <mxCell id="HMflgun2Erm-whntsKhS-7" style="edgeStyle=orthogonalEdgeStyle;rounded=0;orthogonalLoop=1;jettySize=auto;html=1;" parent="1" source="HMflgun2Erm-whntsKhS-2" target="HMflgun2Erm-whntsKhS-4" edge="1">
          <mxGeometry relative="1" as="geometry">
            <Array as="points">
              <mxPoint x="430" y="240" />
              <mxPoint x="160" y="240" />
              <mxPoint x="160" y="370" />
            </Array>
          </mxGeometry>
        </mxCell>
        <mxCell id="PTHWECVXl-26mgJ1CAOD-6" style="edgeStyle=none;rounded=0;orthogonalLoop=1;jettySize=auto;html=1;" edge="1" parent="1" source="HMflgun2Erm-whntsKhS-2">
          <mxGeometry relative="1" as="geometry">
            <mxPoint x="700" y="316" as="targetPoint" />
            <Array as="points">
              <mxPoint x="430" y="320" />
              <mxPoint x="430" y="240" />
              <mxPoint x="560" y="240" />
              <mxPoint x="700" y="240" />
              <mxPoint x="700" y="280" />
            </Array>
          </mxGeometry>
        </mxCell>
        <mxCell id="HMflgun2Erm-whntsKhS-2" value="Home" style="rounded=0;whiteSpace=wrap;html=1;" parent="1" vertex="1">
          <mxGeometry x="370" y="80" width="120" height="60" as="geometry" />
        </mxCell>
        <mxCell id="HMflgun2Erm-whntsKhS-4" value="About Me" style="rounded=0;whiteSpace=wrap;html=1;" parent="1" vertex="1">
          <mxGeometry x="110" y="320" width="120" height="60" as="geometry" />
        </mxCell>
        <mxCell id="HMflgun2Erm-whntsKhS-5" value="Contact Us" style="rounded=0;whiteSpace=wrap;html=1;" parent="1" vertex="1">
          <mxGeometry x="640" y="320" width="120" height="60" as="geometry" />
        </mxCell>
        <mxCell id="PTHWECVXl-26mgJ1CAOD-10" value="" style="edgeStyle=none;rounded=0;orthogonalLoop=1;jettySize=auto;html=1;" edge="1" parent="1" source="PTHWECVXl-26mgJ1CAOD-7" target="PTHWECVXl-26mgJ1CAOD-9">
          <mxGeometry relative="1" as="geometry" />
        </mxCell>
        <mxCell id="PTHWECVXl-26mgJ1CAOD-20" style="edgeStyle=none;rounded=0;orthogonalLoop=1;jettySize=auto;html=1;exitX=0.25;exitY=1;exitDx=0;exitDy=0;" edge="1" parent="1" source="PTHWECVXl-26mgJ1CAOD-7" target="PTHWECVXl-26mgJ1CAOD-11">
          <mxGeometry relative="1" as="geometry" />
        </mxCell>
        <mxCell id="PTHWECVXl-26mgJ1CAOD-21" style="edgeStyle=none;rounded=0;orthogonalLoop=1;jettySize=auto;html=1;exitX=0.5;exitY=1;exitDx=0;exitDy=0;entryX=0.25;entryY=0;entryDx=0;entryDy=0;" edge="1" parent="1" source="PTHWECVXl-26mgJ1CAOD-7" target="PTHWECVXl-26mgJ1CAOD-13">
          <mxGeometry relative="1" as="geometry" />
        </mxCell>
        <mxCell id="PTHWECVXl-26mgJ1CAOD-22" style="edgeStyle=none;rounded=0;orthogonalLoop=1;jettySize=auto;html=1;exitX=0.75;exitY=1;exitDx=0;exitDy=0;" edge="1" parent="1" source="PTHWECVXl-26mgJ1CAOD-7" target="PTHWECVXl-26mgJ1CAOD-15">
          <mxGeometry relative="1" as="geometry" />
        </mxCell>
        <mxCell id="PTHWECVXl-26mgJ1CAOD-23" style="edgeStyle=none;rounded=0;orthogonalLoop=1;jettySize=auto;html=1;exitX=1;exitY=1;exitDx=0;exitDy=0;entryX=0.5;entryY=0;entryDx=0;entryDy=0;" edge="1" parent="1" source="PTHWECVXl-26mgJ1CAOD-7" target="PTHWECVXl-26mgJ1CAOD-19">
          <mxGeometry relative="1" as="geometry" />
        </mxCell>
        <mxCell id="PTHWECVXl-26mgJ1CAOD-7" value="Projects" style="rounded=0;whiteSpace=wrap;html=1;" vertex="1" parent="1">
          <mxGeometry x="370" y="320" width="120" height="60" as="geometry" />
        </mxCell>
        <mxCell id="PTHWECVXl-26mgJ1CAOD-9" value="Food Blog" style="rounded=0;whiteSpace=wrap;html=1;" vertex="1" parent="1">
          <mxGeometry x="80" y="520" width="120" height="60" as="geometry" />
        </mxCell>
        <mxCell id="PTHWECVXl-26mgJ1CAOD-11" value="Muay Thai" style="rounded=0;whiteSpace=wrap;html=1;" vertex="1" parent="1">
          <mxGeometry x="230" y="520" width="120" height="60" as="geometry" />
        </mxCell>
        <mxCell id="PTHWECVXl-26mgJ1CAOD-13" value="Boxing" style="rounded=0;whiteSpace=wrap;html=1;" vertex="1" parent="1">
          <mxGeometry x="390" y="520" width="120" height="60" as="geometry" />
        </mxCell>
        <mxCell id="PTHWECVXl-26mgJ1CAOD-15" value="Venezuela" style="rounded=0;whiteSpace=wrap;html=1;" vertex="1" parent="1">
          <mxGeometry x="550" y="520" width="120" height="60" as="geometry" />
        </mxCell>
        <mxCell id="PTHWECVXl-26mgJ1CAOD-19" value="Python" style="rounded=0;whiteSpace=wrap;html=1;" vertex="1" parent="1">
          <mxGeometry x="700" y="520" width="120" height="60" as="geometry" />
        </mxCell>
      </root>
    </mxGraphModel>
  </diagram>
</mxfile>
